# xmcd CD database file
#
# Track frame offsets:
#	150
#	26475
#	70249
#	89516
#	123009
#	153422
#	191290
#	236523
#	248086
#
# Disc length: 4128 seconds
#
# Revision: 0
# Processed by: cddbd v1.5.1PL2 Copyright (c) Steve Scherf et al.
# Submitted via: CDex 1.51
#
DISCID=68101e09
DTITLE=Kali and Chandra - In The Empty Heart Cave
DYEAR=1900
DGENRE=New Age
TTITLE0=Prayer
TTITLE1=Blessings
TTITLE2=River
TTITLE3=Travelling
TTITLE4=Dawn
TTITLE5=Resting
TTITLE6=Deepening
TTITLE7=Silent heart
TTITLE8=Let there be peace and love!
EXTD=
EXTT0=
EXTT1=
EXTT2=
EXTT3=
EXTT4=
EXTT5=
EXTT6=
EXTT7=
EXTT8=
PLAYORDER=
